<svg width="85" height="85" viewBox="0 0 85 85" fill="none" xmlns="http://www.w3.org/2000/svg">
<g id="html 1">
<path id="Vector" d="M11.7871 76.3672L4.98047 0H79.8535L73.0469 76.3672L42.334 85" fill="#E34F26"/>
<path id="Vector_2" d="M42.5 78.3594L67.2363 71.5527L73.0469 6.14258H42.5" fill="#EF652A"/>
<path id="Vector_3" d="M42.5 34.5312H30.0488L29.2188 24.9023H42.5V15.6055H18.9258L21.416 43.9941H42.5V34.5312ZM42.334 58.9355L31.875 56.1133L31.2109 48.6426H21.9141L23.0762 63.418L42.334 68.7305V58.9355Z" fill="#EBEBEB"/>
<path id="Vector_4" d="M42.334 34.5312V43.9941H53.9551L52.793 56.1133L42.334 58.9355V68.7305L61.5918 63.418L64.248 34.5312H42.334ZM42.334 15.6055V24.9023H65.0781L65.9082 15.6055H42.334Z" fill="white"/>
</g>
</svg>
