<svg width="85" height="85" viewBox="0 0 85 85" fill="none" xmlns="http://www.w3.org/2000/svg">
<g id="javascript 1">
<path id="Vector" d="M0 0H85V85H0V0Z" fill="#F7DF1E"/>
<path id="Vector_2" d="M22.3495 71.0321L28.8539 67.0955C30.109 69.3205 31.2505 71.2031 33.9888 71.2031C36.6135 71.2031 38.2687 70.1764 38.2687 66.1828V39.0233H46.2564V66.2957C46.2564 74.5689 41.4067 78.3348 34.3311 78.3348C27.9412 78.3348 24.2321 75.0254 22.3491 71.0314L22.3495 71.0321ZM50.595 70.1761L57.0988 66.4106C58.8111 69.2066 61.0364 71.2605 64.973 71.2605C68.283 71.2605 70.3934 69.6057 70.3934 67.3233C70.3934 64.5847 68.2252 63.6145 64.5735 62.0174L62.577 61.1608C56.814 58.7081 52.9913 55.6268 52.9913 49.1223C52.9913 43.1312 57.5557 38.5664 64.6881 38.5664C69.7662 38.5664 73.4178 40.3355 76.0422 44.957L69.8226 48.9513C68.453 46.498 66.9701 45.5281 64.6878 45.5281C62.3483 45.5281 60.8647 47.0116 60.8647 48.9513C60.8647 51.3476 62.3483 52.3181 65.7715 53.8017L67.7683 54.6573C74.5584 57.5676 78.3811 60.5343 78.3811 67.2094C78.3811 74.3992 72.7325 78.3358 65.144 78.3358C57.7267 78.3358 52.9338 74.7983 50.5947 70.1764" fill="black"/>
</g>
</svg>
