<svg width="85" height="85" viewBox="0 0 85 85" fill="none" xmlns="http://www.w3.org/2000/svg">
<g id="react-2 1">
<path id="Vector" d="M67.6731 43.8302C67.2578 43.3556 66.8197 42.8798 66.3586 42.4026C66.6806 42.0641 66.9923 41.7259 67.2936 41.388C72.9809 34.9979 75.3812 28.5894 73.1571 24.7367C71.0244 21.0427 64.6804 19.9419 56.7382 21.4862C55.9559 21.6392 55.1779 21.8119 54.4042 22.0041C54.2561 21.4936 54.0986 20.9859 53.9316 20.4812C51.2374 12.3618 46.885 7.08046 42.4366 7.08325C38.1709 7.0852 34.0482 12.0313 31.4182 19.6827C31.1595 20.4376 30.9201 21.1987 30.7001 21.9661C30.1828 21.8392 29.6634 21.7219 29.1418 21.6144C20.7622 19.8939 14.013 21.027 11.7931 24.8819C9.6646 28.5786 11.8906 34.6209 17.2066 40.7207C17.7338 41.3242 18.276 41.9142 18.833 42.4906C18.1763 43.1671 17.5545 43.8432 16.9749 44.5154C11.7878 50.5292 9.689 56.4727 11.8141 60.1534C14.0088 63.9553 20.6631 65.198 28.7624 63.6042C29.4188 63.4741 30.0715 63.3277 30.7207 63.165C30.9584 63.9951 31.2193 64.818 31.5032 65.6336C34.1216 73.1315 38.2212 77.9183 42.4717 77.9168C46.8614 77.9142 51.2619 72.7712 53.9281 64.9587C54.1387 64.3413 54.338 63.7002 54.5269 63.04C55.3654 63.2486 56.2093 63.4337 57.0586 63.5954C64.8622 65.0718 71.0571 63.9106 73.1784 60.2272C75.3688 56.4225 73.1103 50.0413 67.6731 43.8302ZM14.4154 26.3919C15.7819 24.0189 21.2977 23.0932 28.5327 24.5785C28.9951 24.6736 29.4654 24.7799 29.9437 24.8973C29.2373 28.022 28.7389 31.19 28.4517 34.3807C25.8411 36.2172 23.3522 38.2208 21.0004 40.3788C20.4823 39.843 19.978 39.2942 19.4875 38.7323L19.4877 38.7325C14.9329 33.5061 13.1326 28.6195 14.4154 26.3919ZM28.1806 46.6788C26.3724 45.3096 24.6919 43.907 23.1666 42.4961C24.6908 41.0941 26.3724 39.6961 28.1769 38.3306C28.112 39.7216 28.0799 41.1138 28.0805 42.5069C28.0815 43.8981 28.1149 45.2887 28.1806 46.6788ZM28.1785 60.6352C25.1088 61.3177 21.9397 61.4295 18.8295 60.965C17.9769 60.8986 17.147 60.6581 16.391 60.2583C15.635 59.8585 14.9691 59.3079 14.4343 58.6406C13.1449 56.407 14.8301 51.6352 19.2662 46.4919C19.824 45.8473 20.4 45.2195 20.9943 44.6086C23.3464 46.778 25.8394 48.7894 28.457 50.6297C28.7481 53.8611 29.2524 57.0698 29.9665 60.2347C29.3739 60.3829 28.7779 60.5164 28.1785 60.6352ZM53.3283 32.1624C52.1404 31.414 50.9379 30.6895 49.7207 29.9891C48.5229 29.2996 47.3107 28.6361 46.0841 27.9984C48.1843 27.1154 50.2488 26.3612 52.2418 25.7466C52.7117 27.8656 53.0743 30.0069 53.3283 32.1624ZM34.2799 20.6663C36.5332 14.1102 39.8673 10.1102 42.4382 10.1091C45.1762 10.1078 48.7336 14.4238 51.0598 21.4341C51.2109 21.8911 51.3537 22.3506 51.4883 22.8128C48.4323 23.7607 45.4423 24.9097 42.538 26.2525C39.6457 24.8939 36.6651 23.732 33.6165 22.7747C33.8203 22.0666 34.0414 21.3638 34.2799 20.6663ZM32.8619 25.7089C34.9408 26.3634 36.9854 27.1222 38.9878 27.9826C36.5067 29.2631 34.0897 30.6578 31.7368 32.1668C32.021 29.9072 32.3993 27.7423 32.8619 25.7089ZM31.7419 52.8405C32.9153 53.5916 34.1058 54.3149 35.3135 55.0105C36.5453 55.7198 37.7936 56.3993 39.0583 57.049C37.0405 57.9391 34.9784 58.7252 32.88 59.4039C32.4121 57.3423 32.0297 55.1394 31.7419 52.8405ZM51.0642 63.9808C50.122 66.981 48.6356 69.7822 46.6793 72.2444L46.6791 72.2446C46.1956 72.9499 45.5727 73.5486 44.8487 74.0036C44.1248 74.4586 43.3153 74.7604 42.4701 74.8902C39.891 74.8917 36.5992 71.0475 34.36 64.6355C34.0963 63.8774 33.8536 63.1124 33.6321 62.3405C36.6953 61.3523 39.688 60.1575 42.5896 58.7645C45.5178 60.1159 48.5316 61.2736 51.6115 62.23C51.4433 62.8179 51.2609 63.4015 51.0642 63.9808ZM52.3471 59.2909C50.3311 58.6675 48.2367 57.9007 46.1062 57.0047C47.3072 56.3726 48.5169 55.7051 49.7354 55.0021C50.9857 54.2801 52.2042 53.54 53.3908 52.7819C53.1544 54.968 52.8061 57.1405 52.3471 59.291V59.2909ZM53.9277 42.4939C53.9303 44.6447 53.8632 46.7938 53.7263 48.9413C51.9813 50.1222 50.1392 51.2752 48.2225 52.3817C46.3138 53.4838 44.4226 54.4965 42.5674 55.413C40.6152 54.4775 38.7006 53.4693 36.8237 52.3885C34.9573 51.3142 33.1337 50.1702 31.3529 48.9566C31.1901 46.8098 31.1081 44.6592 31.1069 42.5047L31.1073 42.5053C31.1059 40.3523 31.1861 38.2015 31.348 36.053C33.0924 34.8617 34.9212 33.7095 36.812 32.6179C38.7114 31.5211 40.6263 30.5127 42.5307 29.5987C44.4588 30.5358 46.3522 31.54 48.2109 32.6114C50.0759 33.6834 51.9046 34.8151 53.6969 36.0067C53.8508 38.1658 53.9278 40.3282 53.928 42.4939H53.9277ZM57.3161 24.4568C64.1208 23.1332 69.2515 24.0235 70.5368 26.2496C71.9061 28.6212 69.9437 33.8589 65.0337 39.3763L65.0335 39.3765C64.7622 39.6809 64.4807 39.9865 64.1891 40.2935C61.7967 38.1309 59.2597 36.1336 56.5959 34.3157C56.3271 31.1599 55.8474 28.0257 55.1599 24.934C55.8926 24.7538 56.6114 24.5947 57.3161 24.4568ZM56.8561 38.2151C58.6529 39.5269 60.3805 40.9311 62.0318 42.422C60.3878 43.9374 58.6657 45.3658 56.8726 46.7014C56.9275 45.2991 56.9545 43.8961 56.9536 42.4924C56.953 41.0663 56.9205 39.6405 56.8561 38.2151ZM70.5557 58.7169C69.2684 60.9523 64.2944 61.8844 57.6207 60.6218C56.8559 60.4774 56.0712 60.3055 55.2664 60.1062C55.9373 56.9748 56.3958 53.8016 56.6387 50.6083C59.298 48.7586 61.8269 46.7281 64.2075 44.5312C64.6241 44.964 65.0203 45.3948 65.3962 45.8235V45.8232C67.525 48.1379 69.2095 50.8246 70.3654 53.7492C70.7351 54.5202 70.9427 55.3589 70.9754 56.2133C71.0081 57.0678 70.8653 57.9199 70.5557 58.7169ZM39.3231 36.9675C38.2397 37.5931 37.3661 38.5258 36.8128 39.6478C36.2595 40.7698 36.0513 42.0307 36.2146 43.271C36.3779 44.5113 36.9054 45.6753 37.7302 46.6159C38.5551 47.5564 39.6403 48.2313 40.8487 48.555C42.0571 48.8788 43.3344 48.8369 44.519 48.4348C45.7036 48.0326 46.7424 47.2882 47.5039 46.2957C48.2654 45.3031 48.7155 44.1071 48.7973 42.8587C48.8791 41.6104 48.5888 40.3658 47.9633 39.2825C47.1244 37.8298 45.7429 36.7699 44.1226 36.3358C42.5023 35.9017 40.776 36.129 39.3232 36.9676L39.3231 36.9675Z" fill="#6563FF"/>
</g>
</svg>
