<svg width="85" height="85" viewBox="0 0 85 85" fill="none" xmlns="http://www.w3.org/2000/svg">
<g id="redux 1" clip-path="url(#clip0)">
<path id="Vector" d="M58.896 59.1271C62.0327 58.7864 64.4124 55.9496 64.3042 52.545C64.1962 49.1407 61.4918 46.4171 58.2469 46.4171H58.0308C54.6772 46.5306 52.0814 49.481 52.1897 52.9988C52.2979 54.7011 52.9467 56.1763 53.9202 57.1976C50.2426 64.8011 44.618 70.3615 36.1811 75.0142C30.4483 78.1917 24.4993 79.3266 18.5502 78.5324C13.6827 77.8514 9.89685 75.582 7.51685 71.8367C4.05576 66.2763 3.73136 60.2616 6.65191 54.2473C8.70718 49.9349 11.9518 46.7574 14.0071 45.1687C13.5744 43.6935 12.9253 41.197 12.6009 39.3814C-3.08325 51.2969 -1.46061 67.4111 3.29873 75.0142C6.86806 80.6885 14.1153 84.2064 22.1196 84.2064C24.2828 84.2064 26.446 83.9792 28.6095 83.4122C42.4548 80.575 52.947 71.9503 58.896 59.1271ZM77.9334 45.0554C69.7126 34.9555 57.5981 29.3951 43.7527 29.3951H42.0222C41.0487 27.3525 38.9934 25.9905 36.722 25.9905H36.5055C33.1527 26.104 30.5568 29.0544 30.6647 32.5726C30.773 35.9768 33.477 38.7005 36.722 38.7005H36.9381C39.3178 38.5869 41.3731 36.9981 42.2384 34.842H44.1854C52.4061 34.842 60.1939 37.3385 67.225 42.2183C72.6332 45.9632 76.5272 50.843 78.6904 56.7438C80.5292 61.51 80.421 66.1627 78.4739 70.1347C75.4455 76.1491 70.3617 79.4401 63.6554 79.4401C59.3287 79.4401 55.2185 78.0781 53.0549 77.0568C51.8653 78.1917 49.7018 80.0072 48.1874 81.1424C52.8388 83.4118 57.5981 84.6602 62.141 84.6602C72.5249 84.6602 80.2048 78.6456 83.1254 72.6312C86.262 66.0491 86.0456 54.7011 77.9334 45.0554ZM22.9849 61.0558C23.0931 64.4604 25.7972 67.1837 29.0421 67.1837H29.2586C32.6118 67.0705 35.2076 64.1197 35.0993 60.6019C34.9914 57.1973 32.287 54.474 29.0421 54.474H28.826C28.6095 54.474 28.2847 54.474 28.0689 54.5872C23.634 46.8706 21.7952 38.4733 22.4443 29.3947C22.8766 22.5859 25.0401 16.6847 28.826 11.8049C31.9627 7.60614 38.0199 5.56351 42.1304 5.4503C53.5958 5.22319 58.4631 20.2026 58.7878 26.2172C60.1939 26.5576 62.5736 27.3521 64.1962 27.9195C62.898 9.5359 52.0814 0.00341797 41.6978 0.00341797C31.9627 0.00341797 22.9849 7.37972 19.4152 18.2738C14.4397 32.7993 17.6846 46.7574 23.7419 57.7651C23.2013 58.5593 22.8766 59.8077 22.9849 61.0561V61.0558Z" fill="#764ABC"/>
</g>
<defs>
<clipPath id="clip0">
<rect width="85" height="85" fill="white"/>
</clipPath>
</defs>
</svg>
