<svg width="85" height="85" viewBox="0 0 85 85" fill="none" xmlns="http://www.w3.org/2000/svg">
<g id="sass 1" clip-path="url(#clip0)">
<path id="Vector" d="M73.1466 48.8307C70.175 48.8531 67.6017 49.8047 65.4435 51.2216C64.6466 49.1187 63.8498 47.2812 63.7171 45.9091C63.5677 44.3153 63.3851 43.3411 63.5677 41.4377C63.7502 39.5338 64.5802 36.8333 64.5802 36.612C64.5635 36.4127 64.3975 35.4388 62.6877 35.4166C60.9779 35.3945 59.5002 35.8594 59.3341 36.457C59.1681 37.0547 58.8361 38.4271 58.6203 39.8437C58.3214 41.9245 55.2004 49.2956 53.424 53.1693C52.8429 51.664 52.3449 50.3359 52.2451 49.2732C52.0959 47.6797 51.9131 46.7055 52.0959 44.8021C52.2785 42.8982 53.1086 40.1979 53.1086 39.9765C53.092 39.7773 52.9259 38.8034 51.2161 38.7812C49.506 38.7591 48.0286 39.2239 47.8626 39.8216C47.6966 40.4192 47.514 41.8359 47.1488 43.2083C46.8 44.5807 42.6496 56.888 41.5705 60.0976C41.0226 61.7357 40.5413 63.0417 40.1925 63.9271C39.8439 64.8125 40.1759 63.9935 40.1427 64.082C39.8439 64.8346 39.6779 65.2552 39.6779 65.2552V65.2776C39.4455 65.8309 39.1964 66.362 39.0801 66.362C38.9971 66.362 38.831 64.8789 39.1133 62.8427C39.7275 58.5703 41.2217 51.9078 41.2052 51.6643C41.2052 51.5536 41.4873 50.3802 40.2422 49.7828C39.0303 49.1851 38.5988 50.1812 38.499 50.1812C38.3994 50.1812 38.3164 50.5354 38.3164 50.5354C38.3164 50.5354 39.6611 43.0317 35.7432 43.0317C33.2861 43.0317 29.8994 46.5955 28.2226 49.8494C27.1601 50.6241 24.9023 52.2619 22.5117 54.0108C21.5986 54.6749 20.6523 55.3832 19.7559 56.0252L19.5734 55.7591C14.8254 49.0078 6.04313 44.2265 6.40836 35.151C6.54117 31.8528 7.40446 23.1536 23.2757 12.6172C36.2747 3.98434 46.6839 6.35283 48.4933 11.6211C51.0666 19.1471 42.9318 33.1367 29.4183 35.151C24.2718 35.9258 21.5656 33.2695 20.8851 32.2734C20.1712 31.233 20.0716 31.1888 19.806 31.388C19.3743 31.6979 19.64 32.6276 19.806 33.181C20.2044 34.5755 21.8646 37.0547 24.6868 38.2942C27.1603 39.3789 33.2034 39.9765 40.5081 36.2135C48.6927 31.9857 55.0843 20.2539 53.2083 10.4479C51.2992 0.464807 38.8812 -2.81124 27.1439 2.74476C20.1545 6.06507 12.5841 11.2448 7.13883 18.0403C0.664222 26.0976 -0.365075 33.1367 0.0665654 36.0586C1.57747 46.4844 12.3517 53.2799 16.6681 58.3047C16.4523 58.4594 16.2531 58.6143 16.0705 58.7474C13.9123 60.1638 5.6945 65.8971 3.6359 71.962C1.31168 78.824 4.00114 83.7604 5.79411 84.4245C11.339 86.4831 17.0168 82.7865 20.088 76.6992C23.1426 70.612 22.7775 62.7096 21.3664 59.1016L21.3164 58.9687L23.0098 57.6406C24.1056 56.7773 25.1847 55.9805 26.1309 55.294C25.5998 57.2198 25.2178 59.4998 25.0187 62.8201C24.7863 66.7161 25.9816 71.7628 27.5588 73.755C28.256 74.618 29.0861 74.6404 29.6007 74.6404C31.4269 74.6404 32.257 72.6259 33.1701 70.2133C34.299 67.2693 35.2951 63.8604 35.2951 63.8604C35.2951 63.8604 34.05 73.0909 37.4533 73.0909C38.6984 73.0909 39.9435 70.9438 40.508 69.837V69.8591C40.508 69.8591 40.5412 69.7927 40.6076 69.6378C40.6772 69.5005 40.7437 69.3603 40.8068 69.2174V69.1732C41.3048 68.0221 42.4172 65.388 44.0773 61.0273C46.2187 55.4049 48.2775 48.3659 48.2775 48.3659C48.2775 48.3659 48.4767 50.0924 49.091 52.9258C49.4561 54.6083 50.2529 56.4453 50.8672 58.2383C50.3691 59.168 50.0703 59.6994 50.0703 59.6994L50.0869 59.7216C49.6886 60.4299 49.2402 61.1827 48.7755 61.9351C47.0822 64.6356 45.0568 67.7127 44.7912 68.5981C44.4757 69.6382 44.5422 70.413 45.1564 71.033C45.6047 71.4757 46.4015 71.564 47.2482 71.4757C48.7756 71.3427 49.838 70.8338 50.3693 70.5237C51.1994 70.1252 52.1457 69.5276 53.0588 68.6421C54.7189 67.0043 55.7316 64.6801 55.632 61.5812C55.5822 59.8767 55.1672 58.1944 54.6525 56.6007C54.8019 56.3129 54.9515 56.0249 55.1007 55.7153C57.7238 50.6018 59.7492 44.9796 59.7492 44.9796C59.7492 44.9796 59.9484 46.7062 60.5627 49.5395C60.8779 50.9783 61.5089 52.5501 62.0734 54.0996C59.6164 56.778 58.0724 59.877 57.5412 61.9134C56.5617 65.6764 57.3254 67.3809 58.7697 67.7793C59.417 67.9564 60.3468 67.558 61.0439 67.1595C61.9072 66.7832 62.9531 66.1411 63.9162 65.1895C65.5763 63.5514 67.1701 61.2715 67.0871 58.1947C67.0373 56.778 66.755 55.3835 66.3732 54.0553C68.465 52.9043 71.1709 52.2402 74.6076 52.7936C81.9953 53.9447 83.4562 60.0983 83.1742 62.666C82.8919 65.2339 81.348 66.6504 80.8332 67.0931C80.3185 67.5137 80.1525 67.6688 80.2023 67.9785C80.2687 68.4436 80.5011 68.4212 80.9494 68.3329C81.5636 68.1999 84.8341 66.23 84.967 61.4933C85.1662 55.4052 80.8332 48.7645 73.1466 48.8307ZM16.1701 74.4414C13.7297 78.0052 10.2931 79.3555 8.83219 78.2044C7.25504 76.987 7.86913 71.7409 10.8742 67.9557C12.7004 65.6536 15.0744 63.5286 16.6349 62.2226C16.9836 61.9349 17.5148 61.5145 18.1457 61.0052C18.2453 60.9169 18.3117 60.8724 18.3117 60.8724C18.4279 60.7838 18.5607 60.6732 18.6935 60.5625C19.8058 65.9635 18.7433 70.7005 16.1701 74.4414ZM34.0168 58.2604C33.1701 61.0273 31.3771 68.1328 30.298 67.7344C29.3682 67.4023 28.8039 62.0234 30.1152 56.7109C30.7793 54.0323 32.1904 50.845 33.0205 49.6052C34.3654 47.613 35.8262 46.949 36.1916 47.768C36.6232 48.8307 34.548 56.5338 34.0168 58.2604ZM48.7423 67.6458C48.3771 67.8895 48.0451 68.0664 47.8957 67.9338C47.7795 67.8453 48.0449 67.5132 48.0449 67.5132C48.0449 67.5132 49.8877 64.8791 50.6182 63.6617C51.0332 62.9536 51.5312 62.1345 52.0625 61.2046V61.4703C52.0627 64.6575 49.7716 66.7825 48.7423 67.6458ZM60.0976 64.1927C59.832 63.9271 59.8654 63.1081 60.7617 60.5404C61.1105 59.5221 61.9072 57.8177 63.2851 56.2018C63.4512 56.8659 63.5509 57.5076 63.5342 58.1055C63.5177 62.0898 61.3927 63.5729 60.0976 64.1927Z" fill="#CF649A"/>
</g>
<defs>
<clipPath id="clip0">
<rect width="85" height="85" fill="white"/>
</clipPath>
</defs>
</svg>
